<svg width="100%" height="100%" viewBox="0 0 2499 693" fill="none" xmlns="http://www.w3.org/2000/svg">
<path d="M263.248 339.517C357.003 339.517 433.007 263.513 433.007 169.758C433.007 76.0034 357.003 0 263.248 0C169.493 0 93.49 76.0034 93.49 169.758C93.49 263.513 169.493 339.517 263.248 339.517Z" fill="#303030"/>
<path d="M568.321 231.265C615.425 231.265 653.61 193.08 653.61 145.976C653.61 98.8718 615.425 60.6865 568.321 60.6865C521.217 60.6865 483.032 98.8718 483.032 145.976C483.032 193.08 521.217 231.265 568.321 231.265Z" fill="#303030"/>
<path d="M85.2892 483.032C132.393 483.032 170.578 444.847 170.578 397.743C170.578 350.639 132.393 312.454 85.2892 312.454C38.1853 312.454 0 350.639 0 397.743C0 444.847 38.1853 483.032 85.2892 483.032Z" fill="#303030"/>
<path d="M546.999 631.468C644.83 631.468 724.138 552.16 724.138 454.329C724.138 356.498 644.83 277.19 546.999 277.19C449.168 277.19 369.86 356.498 369.86 454.329C369.86 552.16 449.168 631.468 546.999 631.468Z" fill="#303030"/>
<path d="M244.386 692.975C303.266 692.975 350.998 645.243 350.998 586.363C350.998 527.483 303.266 479.752 244.386 479.752C185.506 479.752 137.775 527.483 137.775 586.363C137.775 645.243 185.506 692.975 244.386 692.975Z" fill="#303030"/>
<path d="M1077.92 341.851C1110.71 350.596 1132.58 372.46 1132.58 412.807C1132.58 459.914 1102.76 491.715 1046.12 491.715H931.035V206.897H1021.27C1079.31 206.897 1112.1 237.108 1112.1 284.016C1112.1 309.854 1100.58 330.919 1077.92 341.851ZM1021.67 250.432H980.922V325.959H1025.64C1051.08 325.959 1064.4 308.866 1064.4 287.401C1064.4 266.331 1049.89 250.432 1021.67 250.432ZM1036.77 447.193C1068.97 447.193 1082.69 428.311 1082.69 407.243C1082.69 385.38 1068.78 366.299 1035.18 366.299H980.924V447.193H1036.77ZM1367.32 387.765L1366.53 400.088H1214.67C1216.66 437.653 1241.31 455.939 1270.72 455.939C1292.39 455.939 1309.68 445.206 1318.43 425.926L1363.74 433.28C1350.03 472.635 1314.65 495.69 1271.12 495.69C1208.12 495.69 1165.98 457.132 1165.98 391.144C1165.98 324.956 1209.31 286.198 1269.53 286.198C1325.58 286.198 1366.92 318.398 1367.32 387.765ZM1269.72 321.976C1241.89 321.976 1222.02 336.088 1216.25 366.895H1318.02C1315.23 337.082 1295.95 321.976 1269.72 321.976ZM1573.03 435.269C1573.03 463.295 1575.41 477.405 1578.19 486.35V491.717H1531.09L1526.32 469.058C1511.01 487.741 1485.37 495.692 1461.72 495.692C1429.72 495.692 1399.71 480.785 1399.71 439.841C1399.71 398.301 1430.12 384.188 1473.05 375.245L1506.64 368.289C1520.35 365.307 1525.52 360.139 1525.52 351.394C1525.52 328.735 1506.44 321.581 1488.35 321.581C1466.89 321.581 1450.19 330.525 1446.61 354.178L1402.49 345.83C1410.44 305.483 1440.45 286.599 1490.94 286.599C1531.28 286.599 1573.02 300.115 1573.02 358.351L1573.03 435.269ZM1477.03 461.306C1508.03 461.306 1527.91 442.026 1527.91 397.306L1479.01 409.828C1459.73 414.002 1447.21 420.561 1447.21 436.462C1447.21 453.357 1460.53 461.306 1477.03 461.306ZM1721.1 495.492C1659.68 495.492 1615.56 453.555 1615.56 390.746C1615.56 328.136 1659.69 286.396 1721.1 286.396C1769.99 286.396 1807.16 312.234 1817.7 357.949L1771.78 363.514C1764.43 338.47 1745.55 325.949 1720.7 325.949C1688.1 325.949 1665.05 351.787 1665.05 390.744C1665.05 429.899 1688.1 455.54 1720.7 455.54C1745.55 455.54 1764.43 443.018 1771.78 417.975L1817.7 423.54C1807.16 469.454 1769 495.492 1721.1 495.492ZM1952.85 495.691C1890.84 495.691 1845.33 456.336 1845.33 390.745C1845.33 325.75 1890.44 286.395 1952.85 286.395C2015.46 286.395 2060.38 325.75 2060.38 390.745C2060.38 456.336 2015.07 495.691 1952.85 495.691ZM1952.26 455.74C1986.64 455.74 2011.09 430.099 2011.09 390.745C2011.09 351.787 1986.64 325.949 1952.26 325.949C1918.87 325.949 1894.62 351.787 1894.62 390.745C1894.62 430.099 1918.87 455.74 1952.26 455.74ZM2217.8 286.395C2263.71 286.395 2290.94 311.439 2290.94 356.159V491.713H2241.26V366.893C2241.26 337.676 2223.37 326.743 2202.7 326.743C2178.05 326.743 2156.39 340.258 2156.19 377.625V491.713H2106.5V290.37H2156.19V313.625C2169.9 296.333 2191.37 286.395 2217.8 286.395ZM2418.55 495.691C2374.22 495.691 2340.24 477.206 2333.28 439.641L2375.22 427.715C2380.78 450.374 2397.08 460.312 2418.55 460.312C2434.25 460.312 2451.14 454.946 2450.94 436.66C2450.55 414.398 2420.53 412.015 2388.33 401.083C2363.09 392.735 2338.44 380.413 2338.44 345.829C2338.44 305.083 2372.23 286.598 2414.77 286.598C2453.13 286.598 2485.33 301.704 2492.48 339.666L2453.73 348.61C2448.16 328.137 2433.05 320.387 2414.97 320.387C2399.07 320.387 2383.96 326.548 2383.96 341.654C2383.96 359.741 2407.41 363.517 2433.05 370.276C2464.26 378.624 2498.65 391.146 2498.65 433.879C2498.65 478.997 2460.68 495.691 2418.55 495.691Z" fill="#303030"/>
</svg>
